<mxfile host="65bd71144e">
    <diagram id="ZHENg_b782QI-Ed7pxke" name="第 1 页">
        <mxGraphModel dx="1086" dy="695" grid="1" gridSize="10" guides="1" tooltips="1" connect="1" arrows="1" fold="1" page="1" pageScale="1" pageWidth="827" pageHeight="1169" math="0" shadow="0">
            <root>
                <mxCell id="0"/>
                <mxCell id="1" parent="0"/>
                <mxCell id="vOuLYFUpeTxpKgjLV5qB-4" value="客户端1" style="whiteSpace=wrap;strokeWidth=2;fillColor=#fff2cc;strokeColor=#d6b656;" parent="1" vertex="1">
                    <mxGeometry x="20" y="20" width="117" height="54" as="geometry"/>
                </mxCell>
                <mxCell id="vOuLYFUpeTxpKgjLV5qB-5" value="后台守护进程" style="whiteSpace=wrap;strokeWidth=2;fillColor=#f8cecc;strokeColor=#b85450;fontFamily=Garamond;" parent="1" vertex="1">
                    <mxGeometry x="228" y="137" width="156" height="54" as="geometry"/>
                </mxCell>
                <mxCell id="vOuLYFUpeTxpKgjLV5qB-6" value="客户端2" style="whiteSpace=wrap;strokeWidth=2;fillColor=#fff2cc;strokeColor=#d6b656;" parent="1" vertex="1">
                    <mxGeometry x="481" y="20" width="117" height="54" as="geometry"/>
                </mxCell>
                <mxCell id="vOuLYFUpeTxpKgjLV5qB-7" value="mysql容器&#xa;MySQL" style="whiteSpace=wrap;strokeWidth=2;fillColor=#dae8fc;strokeColor=#6c8ebf;" parent="1" vertex="1">
                    <mxGeometry x="37" y="241" width="134" height="78" as="geometry"/>
                </mxCell>
                <mxCell id="vOuLYFUpeTxpKgjLV5qB-8" value="tomcat容器&#xa;Apache Tomcat" style="whiteSpace=wrap;strokeWidth=2;fillColor=#dae8fc;strokeColor=#6c8ebf;" parent="1" vertex="1">
                    <mxGeometry x="221" y="241" width="170" height="78" as="geometry"/>
                </mxCell>
                <mxCell id="vOuLYFUpeTxpKgjLV5qB-9" value="nginx容器&#xa;NGINX" style="whiteSpace=wrap;strokeWidth=2;fillColor=#dae8fc;strokeColor=#6c8ebf;fontFamily=Lucida Console;labelBackgroundColor=none;" parent="1" vertex="1">
                    <mxGeometry x="441" y="241" width="130" height="78" as="geometry"/>
                </mxCell>
                <mxCell id="vOuLYFUpeTxpKgjLV5qB-10" value="" style="curved=1;startArrow=none;endArrow=block;exitX=0.5;exitY=1;entryX=0;entryY=0.17;rounded=0;" parent="1" source="vOuLYFUpeTxpKgjLV5qB-4" target="vOuLYFUpeTxpKgjLV5qB-5" edge="1">
                    <mxGeometry relative="1" as="geometry">
                        <Array as="points">
                            <mxPoint x="79" y="112"/>
                        </Array>
                    </mxGeometry>
                </mxCell>
                <mxCell id="vOuLYFUpeTxpKgjLV5qB-11" value="" style="curved=1;startArrow=none;endArrow=block;exitX=0.5;exitY=1;entryX=1;entryY=0.18;rounded=0;" parent="1" source="vOuLYFUpeTxpKgjLV5qB-6" target="vOuLYFUpeTxpKgjLV5qB-5" edge="1">
                    <mxGeometry relative="1" as="geometry">
                        <Array as="points">
                            <mxPoint x="540" y="112"/>
                        </Array>
                    </mxGeometry>
                </mxCell>
                <mxCell id="vOuLYFUpeTxpKgjLV5qB-12" value="" style="curved=1;startArrow=none;endArrow=block;exitX=0;exitY=0.87;entryX=0.5;entryY=0;rounded=0;" parent="1" source="vOuLYFUpeTxpKgjLV5qB-5" target="vOuLYFUpeTxpKgjLV5qB-7" edge="1">
                    <mxGeometry relative="1" as="geometry">
                        <Array as="points">
                            <mxPoint x="104" y="216"/>
                        </Array>
                    </mxGeometry>
                </mxCell>
                <mxCell id="vOuLYFUpeTxpKgjLV5qB-13" value="" style="curved=1;startArrow=none;endArrow=block;exitX=0.5;exitY=1;entryX=0.5;entryY=0;rounded=0;" parent="1" source="vOuLYFUpeTxpKgjLV5qB-5" target="vOuLYFUpeTxpKgjLV5qB-8" edge="1">
                    <mxGeometry relative="1" as="geometry">
                        <Array as="points"/>
                    </mxGeometry>
                </mxCell>
                <mxCell id="vOuLYFUpeTxpKgjLV5qB-14" value="" style="curved=1;startArrow=none;endArrow=block;exitX=1;exitY=0.88;entryX=0.5;entryY=0;rounded=0;" parent="1" source="vOuLYFUpeTxpKgjLV5qB-5" target="vOuLYFUpeTxpKgjLV5qB-9" edge="1">
                    <mxGeometry relative="1" as="geometry">
                        <Array as="points">
                            <mxPoint x="506" y="216"/>
                        </Array>
                    </mxGeometry>
                </mxCell>
            </root>
        </mxGraphModel>
    </diagram>
</mxfile>